<?xml version="1.0" encoding="utf-8"?>
<!-- Generator: Adobe Illustrator 23.0.1, SVG Export Plug-In . SVG Version: 6.00 Build 0)  -->
<svg version="1.1" xmlns="http://www.w3.org/2000/svg" xmlns:xlink="http://www.w3.org/1999/xlink" x="0px" y="0px"
	 viewBox="0 0 570 300" enable-background="new 0 0 570 300" xml:space="preserve">
<g id="bg" display="none">
	<rect display="inline" width="570" height="300"/>
</g>
<g id="logo">
	<g>
		<g>
			<g>
				<linearGradient id="SVGID_1_" gradientUnits="userSpaceOnUse" x1="168.7532" y1="-59.1181" x2="163.3699" y2="85.3322">
					<stop  offset="0" style="stop-color:#6E7072"/>
					<stop  offset="0.4475" style="stop-color:#CCCCCC"/>
					<stop  offset="0.5369" style="stop-color:#E4E4E4"/>
					<stop  offset="0.9866" style="stop-color:#6E7072"/>
				</linearGradient>
				<polygon fill="url(#SVGID_1_)" points="59.498,56.624 134.628,56.624 134.628,63.937 141.956,63.937 141.956,49.493 
					134.628,49.493 62.362,49.493 32.231,20.624 299.701,20.624 269.187,49.493 197.385,49.493 190.057,49.493 190.057,63.937 
					197.385,63.937 197.385,56.624 272.026,56.624 317.614,13.493 14.481,13.493 				"/>
				<linearGradient id="SVGID_2_" gradientUnits="userSpaceOnUse" x1="165.33" y1="329.4205" x2="166.2272" y2="231.6249">
					<stop  offset="0" style="stop-color:#6E7072"/>
					<stop  offset="0.4475" style="stop-color:#CCCCCC"/>
					<stop  offset="0.5369" style="stop-color:#E4E4E4"/>
					<stop  offset="0.9866" style="stop-color:#6E7072"/>
				</linearGradient>
				<polygon fill="url(#SVGID_2_)" points="190.295,259.307 166.889,280.781 141.799,259.236 141.799,240.062 134.668,240.062 
					134.668,262.512 167.046,290.315 197.426,262.442 197.426,240.062 190.295,240.062 				"/>
				<linearGradient id="SVGID_3_" gradientUnits="userSpaceOnUse" x1="162.1484" y1="-55.5554" x2="168.4288" y2="278.2056">
					<stop  offset="0" style="stop-color:#6E7072"/>
					<stop  offset="0.4475" style="stop-color:#CCCCCC"/>
					<stop  offset="0.5369" style="stop-color:#E4E4E4"/>
					<stop  offset="0.9866" style="stop-color:#6E7072"/>
				</linearGradient>
				<polygon fill="url(#SVGID_3_)" points="221.195,70.214 187.168,115.181 211.701,115.181 211.701,217.174 212.052,217.174 
					218.278,217.174 218.278,108.604 200.259,108.604 223.927,76.791 253.346,76.791 253.346,226.484 78.748,226.484 
					78.748,184.965 113.775,184.909 113.743,198.509 134.166,198.509 134.166,164.109 78.748,164.04 78.748,76.791 153.983,76.791 
					130.56,108.494 105.298,108.727 105.413,140.478 142.816,140.602 142.816,122.305 136.238,122.305 136.238,134.044 
					111.99,133.898 111.876,115.242 133.761,115.041 167.427,70.214 72.171,70.214 72.171,170.579 127.589,170.577 127.589,191.932 
					120.332,191.932 120.364,178.315 72.171,178.403 72.171,233.061 259.923,233.061 259.923,70.214 221.346,70.214 				"/>
				<linearGradient id="SVGID_4_" gradientUnits="userSpaceOnUse" x1="175.3776" y1="-55.8003" x2="181.6581" y2="277.9607">
					<stop  offset="0" style="stop-color:#6E7072"/>
					<stop  offset="0.4475" style="stop-color:#CCCCCC"/>
					<stop  offset="0.5369" style="stop-color:#E4E4E4"/>
					<stop  offset="0.9866" style="stop-color:#6E7072"/>
				</linearGradient>
				<polygon fill="url(#SVGID_4_)" points="207.093,76.791 212.116,70.214 177.7,70.214 144.228,115.181 168.476,115.181 
					168.476,217.174 168.827,217.174 175.053,217.174 175.053,108.604 157.319,108.604 180.986,76.791 				"/>
				<g>
					<polygon fill="#E31E33" points="74,30.007 71.273,24.48 68.545,30.007 67.892,31.33 60.334,32.428 65.803,37.76 65.296,40.715 
						64.512,45.288 71.273,41.734 78.034,45.288 77.249,40.715 76.742,37.76 82.212,32.428 74.653,31.33 					"/>
					<polygon fill="#E31E33" points="137.183,30.007 134.456,24.48 131.728,30.007 131.075,31.33 123.517,32.428 128.986,37.76 
						128.479,40.715 127.695,45.288 134.456,41.734 141.217,45.288 140.432,40.715 139.925,37.76 145.395,32.428 137.836,31.33 
											"/>
					<polygon fill="#E31E33" points="200.366,30.007 197.639,24.48 194.911,30.007 194.258,31.33 186.699,32.428 192.169,37.76 
						191.662,40.715 190.878,45.288 197.639,41.734 204.399,45.288 203.615,40.715 203.108,37.76 208.578,32.428 201.019,31.33 
											"/>
					<polygon fill="#E31E33" points="263.549,30.007 260.822,24.48 258.094,30.007 257.441,31.33 249.882,32.428 255.352,37.76 
						254.845,40.715 254.061,45.288 260.822,41.734 267.582,45.288 266.798,40.715 266.291,37.76 271.761,32.428 264.202,31.33 
											"/>
				</g>
			</g>
		</g>
		<g>
			<g>
				<g>
					<linearGradient id="SVGID_5_" gradientUnits="userSpaceOnUse" x1="13.2129" y1="38.7152" x2="318.8929" y2="38.7152">
						<stop  offset="0" style="stop-color:#6E7072"/>
						<stop  offset="0.4475" style="stop-color:#CCCCCC"/>
						<stop  offset="0.5369" style="stop-color:#E4E4E4"/>
						<stop  offset="0.9866" style="stop-color:#6E7072"/>
					</linearGradient>
					<path fill="url(#SVGID_5_)" d="M197.895,64.447h-8.347V48.984h79.437l29.437-27.851H33.499l29.068,27.851h79.899v15.463h-8.348
						v-7.313H59.293l-46.08-44.15h305.68l-46.664,44.15h-74.334V64.447z M190.566,63.428h6.31v-7.313h74.947l44.511-42.113H15.749
						l43.953,42.113h75.435v7.313h6.31V50.003H62.158L30.963,20.115H300.98l-31.59,29.888h-78.824V63.428z"/>
				</g>
				<g>
					<linearGradient id="SVGID_6_" gradientUnits="userSpaceOnUse" x1="134.1589" y1="265.2744" x2="197.9354" y2="265.2744">
						<stop  offset="0" style="stop-color:#6E7072"/>
						<stop  offset="0.4475" style="stop-color:#CCCCCC"/>
						<stop  offset="0.5369" style="stop-color:#E4E4E4"/>
						<stop  offset="0.9866" style="stop-color:#6E7072"/>
					</linearGradient>
					<path fill="url(#SVGID_6_)" d="M167.057,290.996l-32.898-28.249v-23.193h8.15v19.449l24.57,21.098l22.908-21.017v-19.53h8.15
						v23.113l-0.165,0.152L167.057,290.996z M135.178,262.278l31.857,27.355l29.882-27.415v-21.646h-6.112v18.959l-0.165,0.152
						l-23.739,21.78l-0.343-0.295L141.29,259.47v-18.899h-6.112V262.278z"/>
				</g>
				<g>
					<linearGradient id="SVGID_7_" gradientUnits="userSpaceOnUse" x1="71.6617" y1="151.6376" x2="260.4326" y2="151.6376">
						<stop  offset="0" style="stop-color:#6E7072"/>
						<stop  offset="0.4475" style="stop-color:#CCCCCC"/>
						<stop  offset="0.5369" style="stop-color:#E4E4E4"/>
						<stop  offset="0.9866" style="stop-color:#6E7072"/>
					</linearGradient>
					<path fill="url(#SVGID_7_)" d="M260.433,233.57H71.662v-55.676l49.212-0.09l-0.032,13.618h6.237v-20.337l-55.418,0.002V69.705
						h96.785l-34.429,45.844l-21.629,0.199l0.108,17.644l23.233,0.14v-11.737h7.596v19.317l-38.42-0.127l-0.118-32.764l25.514-0.235
						l22.672-30.686H79.258v86.231l55.418,0.069v35.419h-21.443l0.032-13.6l-34.007,0.054v40.501h173.579V77.301h-28.654
						l-22.909,30.794h17.515v109.589h-7.596V115.69h-25.047l34.797-45.986h39.491V233.57z M72.68,232.552h186.734V70.723h-37.966
						l-33.256,43.948h24.018v101.993h5.559V109.113h-18.523l24.425-32.831h30.185v150.711H78.239v-42.537l36.047-0.057L114.254,198
						h19.403v-33.382l-55.418-0.069V76.282h76.753l-24.174,32.719l-25.009,0.231l0.111,30.739l36.386,0.12v-17.277h-5.559v11.743
						l-25.264-0.153l-0.121-19.667l22.142-0.203l32.903-43.811H72.68v99.346l55.418-0.002v22.374h-8.277l0.032-13.616l-47.173,0.086
						V232.552z"/>
				</g>
				<g>
					<linearGradient id="SVGID_8_" gradientUnits="userSpaceOnUse" x1="143.2135" y1="143.6942" x2="213.1461" y2="143.6942">
						<stop  offset="0" style="stop-color:#6E7072"/>
						<stop  offset="0.4475" style="stop-color:#CCCCCC"/>
						<stop  offset="0.5369" style="stop-color:#E4E4E4"/>
						<stop  offset="0.9866" style="stop-color:#6E7072"/>
					</linearGradient>
					<path fill="url(#SVGID_8_)" d="M175.562,217.684h-7.596V115.69h-24.753l34.231-45.986h35.702l-5.801,7.596h-26.104
						l-22.909,30.794h17.23V217.684z M168.985,216.665h5.559V109.113h-18.239l24.425-32.831h26.112l4.245-5.559h-33.13
						l-32.714,43.948h23.743V216.665z"/>
				</g>
				<g>
					<g>
						<linearGradient id="SVGID_9_" gradientUnits="userSpaceOnUse" x1="59.2389" y1="34.7744" x2="83.3066" y2="34.7744">
							<stop  offset="0" style="stop-color:#6E7072"/>
							<stop  offset="0.4475" style="stop-color:#CCCCCC"/>
							<stop  offset="0.5369" style="stop-color:#E4E4E4"/>
							<stop  offset="0.9866" style="stop-color:#6E7072"/>
						</linearGradient>
						<path fill="url(#SVGID_9_)" d="M78.71,46.219l-7.437-3.91l-7.437,3.91l1.42-8.281l-6.017-5.865l8.315-1.208l3.719-7.535
							l3.719,7.535l8.315,1.208l-6.017,5.865L78.71,46.219z M71.273,41.158l6.084,3.199l-1.162-6.775l4.922-4.798l-6.802-0.988
							l-3.042-6.164l-3.042,6.164l-6.802,0.988l4.922,4.798l-1.162,6.775L71.273,41.158z"/>
					</g>
					<g>
						<linearGradient id="SVGID_10_" gradientUnits="userSpaceOnUse" x1="122.422" y1="34.7744" x2="146.4895" y2="34.7744">
							<stop  offset="0" style="stop-color:#6E7072"/>
							<stop  offset="0.4475" style="stop-color:#CCCCCC"/>
							<stop  offset="0.5369" style="stop-color:#E4E4E4"/>
							<stop  offset="0.9866" style="stop-color:#6E7072"/>
						</linearGradient>
						<path fill="url(#SVGID_10_)" d="M141.893,46.219l-7.437-3.91l-7.437,3.91l1.42-8.282l-6.017-5.865l8.315-1.208l3.719-7.535
							l3.719,7.535l8.315,1.208l-6.017,5.865L141.893,46.219z M134.456,41.158l6.084,3.199l-1.162-6.775l4.922-4.798l-6.802-0.988
							l-3.042-6.164l-3.042,6.164l-6.802,0.988l4.922,4.798l-1.162,6.775L134.456,41.158z"/>
					</g>
					<g>
						<linearGradient id="SVGID_11_" gradientUnits="userSpaceOnUse" x1="185.6048" y1="34.7744" x2="209.6725" y2="34.7744">
							<stop  offset="0" style="stop-color:#6E7072"/>
							<stop  offset="0.4475" style="stop-color:#CCCCCC"/>
							<stop  offset="0.5369" style="stop-color:#E4E4E4"/>
							<stop  offset="0.9866" style="stop-color:#6E7072"/>
						</linearGradient>
						<path fill="url(#SVGID_11_)" d="M205.076,46.219l-7.437-3.91l-7.437,3.91l1.42-8.282l-6.017-5.865l8.315-1.208l3.719-7.535
							l3.719,7.535l8.315,1.208l-6.017,5.865L205.076,46.219z M197.639,41.158l6.084,3.199l-1.162-6.775l4.922-4.798l-6.802-0.988
							l-3.042-6.164l-3.042,6.164l-6.802,0.988l4.922,4.798l-1.162,6.775L197.639,41.158z"/>
					</g>
					<g>
						<linearGradient id="SVGID_12_" gradientUnits="userSpaceOnUse" x1="248.7877" y1="34.7744" x2="272.8554" y2="34.7744">
							<stop  offset="0" style="stop-color:#6E7072"/>
							<stop  offset="0.4475" style="stop-color:#CCCCCC"/>
							<stop  offset="0.5369" style="stop-color:#E4E4E4"/>
							<stop  offset="0.9866" style="stop-color:#6E7072"/>
						</linearGradient>
						<path fill="url(#SVGID_12_)" d="M253.384,46.219l1.42-8.282l-6.017-5.865l8.315-1.208l3.719-7.535l3.719,7.535l8.315,1.208
							l-6.017,5.865l1.42,8.282l-7.437-3.91L253.384,46.219z M260.821,41.158l6.084,3.199l-1.162-6.775l4.922-4.798l-6.802-0.988
							l-3.042-6.164l-3.042,6.164l-6.802,0.988l4.922,4.798l-1.162,6.775L260.821,41.158z"/>
					</g>
				</g>
			</g>
		</g>
		<g>
			<g>
				<linearGradient id="SVGID_13_" gradientUnits="userSpaceOnUse" x1="329.5738" y1="-19.9886" x2="333.1199" y2="288.5232">
					<stop  offset="0" style="stop-color:#6E7072"/>
					<stop  offset="0.4475" style="stop-color:#CCCCCC"/>
					<stop  offset="0.5369" style="stop-color:#E4E4E4"/>
					<stop  offset="0.9866" style="stop-color:#6E7072"/>
				</linearGradient>
				<path fill="url(#SVGID_13_)" d="M297.892,186.312l27.673-40.552c0,0-1.915,0.348-3.655,0.348
					c-20.363,0-38.29-15.664-38.29-37.245c0-28.195,22.278-46.122,48.036-46.122c24.889,0,46.818,18.101,46.818,44.904
					c0,12.879-3.481,24.715-11.835,37.246l-27.325,41.423H297.892z M331.134,97.027c-6.44,0-10.965,4.525-10.965,10.965
					c0,6.44,4.525,11.139,10.965,11.139c6.44,0,10.791-4.699,10.791-11.139C341.925,101.552,337.574,97.027,331.134,97.027z"/>
				<linearGradient id="SVGID_14_" gradientUnits="userSpaceOnUse" x1="423.8651" y1="-21.0724" x2="427.4112" y2="287.4394">
					<stop  offset="0" style="stop-color:#6E7072"/>
					<stop  offset="0.4475" style="stop-color:#CCCCCC"/>
					<stop  offset="0.5369" style="stop-color:#E4E4E4"/>
					<stop  offset="0.9866" style="stop-color:#6E7072"/>
				</linearGradient>
				<path fill="url(#SVGID_14_)" d="M463.756,64.48v121.831h-37.42v-78.842l-22.452,13.75L386.307,96.33l46.122-31.85H463.756z"/>
				<linearGradient id="SVGID_15_" gradientUnits="userSpaceOnUse" x1="516.0964" y1="-22.1325" x2="519.6425" y2="286.3792">
					<stop  offset="0" style="stop-color:#6E7072"/>
					<stop  offset="0.4475" style="stop-color:#CCCCCC"/>
					<stop  offset="0.5369" style="stop-color:#E4E4E4"/>
					<stop  offset="0.9866" style="stop-color:#6E7072"/>
				</linearGradient>
				<path fill="url(#SVGID_15_)" d="M556,64.48v121.831h-37.42v-78.842l-22.452,13.75L478.55,96.33l46.122-31.85H556z"/>
			</g>
			<g>
				<linearGradient id="SVGID_16_" gradientUnits="userSpaceOnUse" x1="332.5189" y1="-40.8126" x2="329.8112" y2="233.5662">
					<stop  offset="0" style="stop-color:#6E7072"/>
					<stop  offset="0.4475" style="stop-color:#CCCCCC"/>
					<stop  offset="0.5369" style="stop-color:#E4E4E4"/>
					<stop  offset="0.9866" style="stop-color:#6E7072"/>
				</linearGradient>
				<path fill="url(#SVGID_16_)" d="M331.656,65.472c5.83,0,11.497,1.032,16.843,3.068c5.283,2.012,10.011,4.91,14.053,8.615
					c4.129,3.784,7.364,8.253,9.612,13.28c2.374,5.307,3.577,11.097,3.577,17.208c0,12.734-3.615,24.088-11.384,35.741
					l-26.515,40.195h-34.778l24.757-36.279l3.673-5.385l-6.417,1.156c-0.017,0.003-1.706,0.304-3.168,0.304
					c-4.673,0-9.237-0.872-13.564-2.592c-4.248-1.688-8.064-4.109-11.344-7.195c-6.867-6.463-10.649-15.244-10.649-24.726
					c0-6.453,1.228-12.508,3.651-17.998c2.289-5.187,5.591-9.768,9.815-13.616C308.155,69.654,319.462,65.472,331.656,65.472
					 M331.134,121.863c7.836,0,13.523-5.834,13.523-13.872c0-7.937-5.687-13.698-13.523-13.698c-7.937,0-13.698,5.761-13.698,13.698
					C317.437,116.029,323.198,121.863,331.134,121.863 M331.656,62.74c-25.759,0-48.036,17.927-48.036,46.122
					c0,21.581,17.927,37.245,38.29,37.245c1.74,0,3.655-0.348,3.655-0.348l-27.673,40.552h41.423l27.325-41.423
					c8.354-12.531,11.835-24.366,11.835-37.246C378.475,80.84,356.545,62.74,331.656,62.74L331.656,62.74z M331.134,119.13
					c-6.44,0-10.965-4.699-10.965-11.139c0-6.44,4.525-10.965,10.965-10.965c6.44,0,10.791,4.525,10.791,10.965
					C341.925,114.431,337.574,119.13,331.134,119.13L331.134,119.13z"/>
				<linearGradient id="SVGID_17_" gradientUnits="userSpaceOnUse" x1="426.8197" y1="-39.882" x2="424.112" y2="234.4968">
					<stop  offset="0" style="stop-color:#6E7072"/>
					<stop  offset="0.4475" style="stop-color:#CCCCCC"/>
					<stop  offset="0.5369" style="stop-color:#E4E4E4"/>
					<stop  offset="0.9866" style="stop-color:#6E7072"/>
				</linearGradient>
				<path fill="url(#SVGID_17_)" d="M461.024,67.213v116.366H429.07v-76.11v-4.878l-4.16,2.548l-20.269,12.413L390.132,97.01
					l43.148-29.797H461.024 M463.756,64.48h-31.328l-46.122,31.85l17.578,24.889l22.452-13.75v78.842h37.42V64.48L463.756,64.48z"/>
				<linearGradient id="SVGID_18_" gradientUnits="userSpaceOnUse" x1="519.0543" y1="-38.9718" x2="516.3466" y2="235.4071">
					<stop  offset="0" style="stop-color:#6E7072"/>
					<stop  offset="0.4475" style="stop-color:#CCCCCC"/>
					<stop  offset="0.5369" style="stop-color:#E4E4E4"/>
					<stop  offset="0.9866" style="stop-color:#6E7072"/>
				</linearGradient>
				<path fill="url(#SVGID_18_)" d="M553.267,67.213v116.366h-31.954v-76.11v-4.878l-4.16,2.548l-20.269,12.413L482.375,97.01
					l43.148-29.797H553.267 M556,64.48h-31.328L478.55,96.33l17.578,24.889l22.452-13.75v78.842H556V64.48L556,64.48z"/>
			</g>
			<g>
				<path fill="#FFFFFF" d="M293.278,215.4h-3.976v-14.735H284v-3.456h14.553v3.456h-5.275V215.4z"/>
				<path fill="#FFFFFF" d="M311.753,197.209c3.898,0,6.549,2.417,6.549,5.899c0,2.599-1.481,4.626-3.82,5.483l4.6,6.809h-4.626
					l-4.08-6.263h-2.781v6.263h-3.976v-18.191H311.753z M307.595,206.071h3.664c1.949,0,3.067-1.143,3.067-2.755
					c0-1.585-1.117-2.755-3.067-2.755h-3.664V206.071z"/>
				<path fill="#FFFFFF" d="M329.579,197.209h3.976l7.38,18.191h-4.392l-1.455-3.82h-7.25l-1.455,3.82h-4.184L329.579,197.209z
					 M333.971,208.435l-2.495-6.653l-2.547,6.653H333.971z"/>
				<path fill="#FFFFFF" d="M349.536,215.4h-3.872v-18.191h4.106l8.394,11.928v-11.928h3.872V215.4h-3.872l-8.628-12.24V215.4z"/>
				<path fill="#FFFFFF" d="M375.495,204.511c2.703,1.065,5.197,2.703,5.197,5.691c0,3.04-2.599,5.457-6.575,5.457
					c-4.548,0-6.965-2.729-6.965-2.729l2.339-2.547c0,0,2.001,2.053,4.834,2.053c1.351,0,2.287-0.779,2.287-1.793
					c0-1.169-0.884-2.001-4.132-3.3c-2.521-0.988-4.34-2.599-4.34-5.224c0-2.963,2.495-5.171,6.315-5.171
					c3.95,0,6.159,2.339,6.159,2.339l-2.339,2.547c0,0-1.507-1.663-3.768-1.663c-1.533,0-2.287,0.832-2.287,1.637
					C372.221,202.874,372.949,203.524,375.495,204.511z"/>
				<path fill="#FFFFFF" d="M386.539,197.209h7.874c4.106,0,6.809,2.521,6.809,6.159c0,3.638-2.833,6.263-6.939,6.263h-3.768v5.769
					h-3.976V197.209z M394.023,206.357c1.949,0,3.222-1.222,3.222-2.885c0-1.663-1.273-2.91-3.222-2.91h-3.508v5.795H394.023z"/>
				<path fill="#FFFFFF" d="M415.617,196.949c5.431,0,9.486,4.028,9.486,9.278c0,5.249-4.184,9.434-9.615,9.434
					c-5.431,0-9.485-4.028-9.485-9.278C406.002,201.133,410.186,196.949,415.617,196.949z M415.539,211.996
					c3.222,0,5.587-2.469,5.587-5.691c0-3.222-2.365-5.691-5.587-5.691c-3.196,0-5.561,2.469-5.561,5.691
					C409.978,209.527,412.343,211.996,415.539,211.996z"/>
				<path fill="#FFFFFF" d="M439.082,197.209c3.898,0,6.549,2.417,6.549,5.899c0,2.599-1.481,4.626-3.82,5.483l4.6,6.809h-4.626
					l-4.08-6.263h-2.781v6.263h-3.976v-18.191H439.082z M434.924,206.071h3.664c1.949,0,3.067-1.143,3.067-2.755
					c0-1.585-1.117-2.755-3.067-2.755h-3.664V206.071z"/>
				<path fill="#FFFFFF" d="M459.272,215.4h-3.976v-14.735h-5.301v-3.456h14.553v3.456h-5.276V215.4z"/>
				<path fill="#FFFFFF" d="M472.629,197.209h3.976l7.38,18.191h-4.392l-1.455-3.82h-7.251l-1.455,3.82h-4.184L472.629,197.209z
					 M477.021,208.435l-2.495-6.653l-2.547,6.653H477.021z"/>
				<path fill="#FFFFFF" d="M493.963,215.4h-3.976v-14.735h-5.301v-3.456h14.553v3.456h-5.275V215.4z"/>
				<path fill="#FFFFFF" d="M508.515,197.209V215.4h-4.08v-18.191H508.515z"/>
				<path fill="#FFFFFF" d="M524.106,196.949c5.431,0,9.486,4.028,9.486,9.278c0,5.249-4.184,9.434-9.615,9.434
					s-9.485-4.028-9.485-9.278C514.491,201.133,518.675,196.949,524.106,196.949z M524.028,211.996c3.222,0,5.587-2.469,5.587-5.691
					c0-3.222-2.365-5.691-5.587-5.691c-3.196,0-5.561,2.469-5.561,5.691C518.467,209.527,520.832,211.996,524.028,211.996z"/>
				<path fill="#FFFFFF" d="M543.309,215.4h-3.872v-18.191h4.106l8.394,11.928v-11.928h3.872V215.4h-3.872l-8.628-12.24V215.4z"/>
			</g>
			<g>
				<path fill="#E31E33" d="M287.2,222.53v8.519h5.364v2.69h-8.535V222.53H287.2z"/>
				<path fill="#E31E33" d="M304.542,233.738V222.53h3.155v11.209H304.542z"/>
				<path fill="#E31E33" d="M326.961,233.786h-3.09l-4.66-11.257h3.507l1.281,3.363l1.409,4.147l1.425-4.147l1.281-3.363h3.507
					L326.961,233.786z"/>
				<path fill="#E31E33" d="M352.102,233.738h-8.967V222.53h8.743v2.658h-5.62v1.601h5.3v2.578h-5.3v1.697h5.845V233.738z"/>
				<path fill="#E31E33" d="M374.856,233.738h-3.491l-2.61-3.635h-1.105v3.635h-3.171V222.53h5.476c2.866,0,4.355,1.841,4.355,3.859
					c0,1.377-0.48,2.546-2.37,3.378l2.914,3.779V233.738z M367.651,225.06v2.69h2.338c0.833,0,1.201-0.625,1.201-1.297
					c0-0.705-0.4-1.393-1.233-1.393H367.651z"/>
				<path fill="#E31E33" d="M390.838,226.373l2.418-3.843h3.571v0.144l-4.452,6.597v4.467h-3.17v-4.467l-4.259-6.613v-0.128h3.571
					L390.838,226.373z"/>
				<path fill="#E31E33" d="M428.774,225.636c-0.769-0.576-1.649-0.768-2.626-0.768c-0.769,0-1.521,0.24-1.521,0.833
					c0,0.769,0.753,0.881,1.857,0.993c2.226,0.24,4.548,1.137,4.548,3.715c0,2.546-2.402,3.635-4.916,3.651
					c-2.018,0.016-3.459-0.336-5.012-1.97l1.745-2.002c1.105,1.073,2.338,1.265,3.283,1.265c1.041,0,1.761-0.368,1.761-0.993
					c0-0.56-0.641-0.913-1.873-1.025c-2.45-0.224-4.564-0.848-4.564-3.635c0-2.37,2.322-3.395,4.692-3.395
					c1.681,0,2.994,0.384,4.195,1.329L428.774,225.636z"/>
				<path fill="#E31E33" d="M452.089,233.738h-8.967V222.53h8.743v2.658h-5.62v1.601h5.3v2.578h-5.3v1.697h5.845V233.738z"/>
				<path fill="#E31E33" d="M474.844,233.738h-3.491l-2.61-3.635h-1.105v3.635h-3.17V222.53h5.476c2.866,0,4.355,1.841,4.355,3.859
					c0,1.377-0.48,2.546-2.37,3.378l2.914,3.779V233.738z M467.638,225.06v2.69h2.338c0.833,0,1.201-0.625,1.201-1.297
					c0-0.705-0.4-1.393-1.233-1.393H467.638z"/>
				<path fill="#E31E33" d="M492.94,233.786h-3.09l-4.66-11.257h3.507l1.281,3.363l1.409,4.147l1.425-4.147l1.281-3.363h3.507
					L492.94,233.786z"/>
				<path fill="#E31E33" d="M509.113,233.738V222.53h3.154v11.209H509.113z"/>
				<path fill="#E31E33" d="M535.151,232.281c-1.265,1.249-2.802,1.745-4.499,1.745c-4.403,0-6.117-2.77-6.133-5.812
					c-0.016-2.882,1.921-5.941,6.133-5.941c1.617,0,3.074,0.56,4.339,1.794l-1.953,1.921c-0.801-0.768-1.633-0.977-2.386-0.977
					c-2.162,0-3.01,1.761-2.994,3.218c0.016,1.457,0.785,3.106,2.994,3.106c0.753,0,1.841-0.32,2.642-1.137L535.151,232.281z"/>
				<path fill="#E31E33" d="M556,233.738h-8.967V222.53h8.743v2.658h-5.62v1.601h5.3v2.578h-5.3v1.697H556V233.738z"/>
			</g>
		</g>
	</g>
</g>
</svg>
